<svg version="1" xmlns="http://www.w3.org/2000/svg" width="1333.333" height="1333.333" viewBox="0 0 1000.000000 1000.000000"><path d="M466 1.1c-95.9 6.4-187.3 39.7-264.5 96.3-19.5 14.4-34.6 27.5-55.6 48.5-27.8 27.8-45.4 49.4-65.2 79.8-107.6 165.2-107.6 383.4 0 548.6 19.8 30.4 37.4 52 65.2 79.8 27.8 27.8 49.4 45.4 79.8 65.2 165.2 107.6 383.4 107.6 548.6 0 30.4-19.8 52-37.4 79.8-65.2 41.5-41.5 68.9-79.8 94.4-131.6 16.2-33 27.3-62.9 36-97.7 37-147.7 6.8-303.3-82.3-423.8-15-20.2-27-34-48.1-55.1-25.8-25.7-47.2-43.6-74.6-61.9-24.9-16.8-64.6-37.6-92.1-48.4C617.2 8.1 540.9-3.8 466 1.1zm156.4 270.7l120.8 71.1-3.9 2.4c-2.1 1.3-56.8 35.1-121.5 75.1L500 493.1l-117.7-72.7c-64.8-40-119.5-73.8-121.6-75.1l-3.9-2.4 121.4-71.4c66.7-39.3 121.8-71.3 122.4-71.1.6.3 55.4 32.4 121.8 71.4zM757 539.3v125.3L643.4 732c-62.4 37.1-114 67.7-114.5 67.8-.5.2-.8-48.2-.7-124.8l.3-125.1 114-67.9c62.7-37.3 114.1-67.8 114.3-67.9.1-.1.2 56.3.2 125.2zm-402.9-57.1l109.8 67.3.1 125.3c0 104.9-.2 125.2-1.3 124.5-.8-.4-50.5-30.9-110.5-67.7l-109.2-67V539.8c0-68.6.3-124.8.6-124.8.4 0 50.1 30.3 110.5 67.2z"/></svg>