<svg viewBox="0 0 250 250" xmlns="http://www.w3.org/2000/svg">
  <g fill="none" fill-rule="evenodd">
    <circle fill="#E3F9FF" cx="125" cy="125" r="125"/>
    <circle fill="#CDF1FC" cx="125" cy="125" r="100"/>
    <path d="M145.10637 119.03577l20.8774-20.8774 19.43215 19.43213c2.00843 2.117 3.01265 4.58683 3.01265 7.4095 0 2.76838-1.00422 5.21108-3.01265 7.32808l-6.10673 6.10673c-2.06275 2.06274-4.53258 3.0941-7.4095 3.0941-2.93126 0-5.37395-1.03136-7.3281-3.09407l-19.46525-19.39903zm-4.47314 4.47314v55.4377c0 2.82268-1.0178 5.1161-3.05337 6.88026-2.03557 1.76417-4.49184 2.64625-7.36878 2.64625h-10.42216c-2.87695 0-5.3332-.8821-7.36878-2.64625-2.03558-1.76416-3.05337-4.05758-3.05337-6.88025v-24.17124l31.26646-31.26646zm-31.26646 2.9822v-11.91323L85.4284 138.4348c-1.95417 2.06272-4.39686 3.09408-7.3281 3.09408-2.93122 0-5.3739-1.03136-7.32806-3.09407l-6.10673-6.1067c-2.0627-2.06272-3.09405-4.5054-3.09405-7.3281 0-2.87693 1.03136-5.34676 3.09408-7.4095l53.00642-53.0064c1.89987-2.00843 4.34257-3.01265 7.32808-3.01265 2.93123 0 5.40106 1.00422 7.4095 3.01265l19.43214 19.43213-42.47487 42.47487z" fill="#1CAAD9" fill-rule="nonzero"/>
    <rect fill="#DC4040" transform="rotate(-45 125 125)" x="40" y="121" width="170" height="8" rx="4"/>
  </g>
</svg>
