<svg height="250" viewBox="0 0 250 250" width="250" xmlns="http://www.w3.org/2000/svg"><g fill="none" fill-rule="evenodd" transform=""><path d="m125 0c69.035 0 125 55.964 125 125 0 69.035-55.965 125-125 125-69.036 0-125-55.965-125-125 0-69.036 55.964-125 125-125" fill="#e3f9ff"/><path d="m125 25c-55.229 0-100 44.771-100 100s44.771 100 100 100 100-44.771 100-100-44.771-100-100-100" fill="#cdf1fc"/><g fill="#1caad9"><path d="m143.583 125c0-2.174-.393-4.251-1.078-6.19l-23.695 23.695c1.939.685 4.016 1.078 6.19 1.078 10.264 0 18.583-8.319 18.583-18.583"/><path d="m93.3379 145.3486 22.228-22.228c-2.701-1.164-5.183-2.859-7.435-5.11-4.66-4.661-6.99-10.284-6.99-16.87 0-6.585 2.33-12.209 6.99-16.868 4.66-4.66 10.283-6.99 16.869-6.99s12.209 2.33 16.869 6.99c2.252 2.251 3.947 4.733 5.111 7.434l17.489-17.489c-1.662-2.374-3.566-4.648-5.731-6.814-9.32-9.32-20.566-13.98-33.738-13.98s-24.418 4.66-33.738 13.98-13.98 20.566-13.98 33.737c0 6.773 1.026 12.334 3.076 16.683z"/><path d="m100.5894 160.7246 13.786 29.234c.932 2.051 2.377 3.666 4.334 4.847s4.054 1.771 6.291 1.771c2.236 0 4.334-.59 6.291-1.771s3.432-2.796 4.426-4.847l33.924-72.135c2.051-4.349 3.076-9.91 3.076-16.682 0-3.936-.425-7.696-1.257-11.288z"/></g><path d="m64.896 179.4473 114.551-114.551c1.563-1.562 4.095-1.562 5.657 0s1.562 4.094 0 5.656l-114.551 114.552c-1.562 1.562-4.095 1.562-5.657 0s-1.562-4.095 0-5.657" fill="#dc4040"/></g></svg>