<svg height="250" viewBox="0 0 250 250" width="250" xmlns="http://www.w3.org/2000/svg"><g fill="none" fill-rule="evenodd" transform=""><path d="m125 0c69.035 0 125 55.964 125 125 0 69.035-55.965 125-125 125-69.036 0-125-55.965-125-125 0-69.036 55.964-125 125-125" fill="#e3f9ff"/><path d="m125 25c-55.229 0-100 44.771-100 100s44.771 100 100 100 100-44.771 100-100-44.771-100-100-100" fill="#cdf1fc"/><path d="m64.896 179.4473 114.551-114.551c1.563-1.562 4.095-1.562 5.657 0s1.562 4.094 0 5.656l-114.551 114.552c-1.562 1.562-4.095 1.562-5.657 0s-1.562-4.095 0-5.657" fill="#dc4040"/><g fill="#1caad9"><path d="m153.876 71.2686c.427.244 1.112.563 2.056.959s1.63.716 2.056.96c1.69.918 3.254 1.849 4.722 2.789l8.464-8.464c-3.897-2.724-8.105-5.072-12.638-7.027-.792-.304-1.584-.457-2.376-.457-1.584 0-2.954.579-4.111 1.737-1.158 1.157-1.736 2.527-1.736 4.111 0 2.194 1.187 3.991 3.563 5.392"/><path d="m144.6465 92.7427c.296.153.572.299.852.446l8.759-8.76c-1.588-.903-3.225-1.742-4.951-2.469-.791-.304-1.584-.457-2.375-.457-1.584 0-2.955.579-4.112 1.737-1.157 1.157-1.736 2.528-1.736 4.112 0 2.376 1.187 4.173 3.563 5.391"/><path d="m150.3584 137.9307c2.589-3.99 3.883-8.301 3.883-12.931s-1.294-8.955-3.883-12.976c-.141-.218-.293-.418-.438-.629l-8.45 8.449c.714 1.392 1.075 3.109 1.075 5.156 0 2.072-.366 3.808-1.097 5.209s-1.614 2.483-2.65 3.244-2.071 1.462-3.107 2.102c-1.035.64-1.919 1.4-2.65 2.284s-1.096 1.965-1.096 3.244c0 1.645.578 3.031 1.735 4.158 1.158 1.127 2.529 1.691 4.113 1.691.914 0 1.675-.152 2.285-.457 4.263-1.706 7.69-4.554 10.28-8.544"/><path d="m189.4229 86.3921c-1.935-2.932-4.029-5.671-6.283-8.217l-8.298 8.298c3.194 3.65 5.934 7.681 8.185 12.118 4.203 8.285 6.304 17.088 6.304 26.409 0 9.32-2.101 18.124-6.304 26.409-4.204 8.285-10.052 15.199-17.545 20.743-2.194 1.584-4.692 3.137-7.494 4.66-.426.244-1.112.564-2.056.959-.944.397-1.629.716-2.056.96-2.376 1.402-3.563 3.199-3.563 5.392 0 1.584.578 2.954 1.736 4.112 1.157 1.157 2.527 1.736 4.111 1.736.792 0 1.584-.153 2.376-.456 12.855-5.544 23.15-14.18 30.887-25.907s11.605-24.596 11.605-38.608-3.868-26.881-11.605-38.608"/><path d="m169.8672 150.8145c5.179-7.889 7.768-16.494 7.768-25.814 0-9.321-2.589-17.926-7.768-25.815-1.03-1.57-2.146-3.03-3.309-4.43l-8.335 8.335c1.496 1.86 2.811 3.871 3.922 6.055 2.529 4.965 3.793 10.25 3.793 15.855 0 5.604-1.264 10.889-3.793 15.854-2.527 4.965-6.046 9.092-10.553 12.382-1.219.914-3.534 2.254-6.946 4.02-2.376 1.219-3.563 3.016-3.563 5.392 0 1.584.579 2.955 1.736 4.112 1.157 1.158 2.559 1.737 4.203 1.737.732 0 1.493-.153 2.284-.457 8.53-3.595 15.383-9.336 20.561-17.226"/><path d="m84.5273 154.1592 34.625-34.625v-44.245c0-1.584-.58-2.955-1.737-4.112-1.158-1.158-2.528-1.736-4.112-1.736s-2.955.578-4.112 1.736l-30.43 30.43h-23.941c-1.584 0-2.955.578-4.112 1.736-1.158 1.157-1.737 2.528-1.737 4.112v35.09c0 1.584.579 2.955 1.737 4.112 1.157 1.157 2.528 1.736 4.112 1.736h23.941z"/><path d="m95.8413 165.4727 13.35 13.351c1.157 1.157 2.528 1.735 4.112 1.735s2.955-.578 4.112-1.735c1.157-1.159 1.737-2.529 1.737-4.113v-32.549z"/></g></g></svg>